:FULLY-SPECIFIED
:FORCE-ALL-JOINTS-BE-3DOF
:DEGREES
611
root 5.60991 16.6817 -3.76719 -0.00694802 52.5208 -8.11019
lfemur -17.9723 24.5801 -21.8404
ltibia 40.3905 -0 0
lfoot -32.2314 24.9051 0.0021707
ltoes 17.3938 -0 0
rfemur -52.5813 -17.9098 28.1484
rtibia 60.6638 -0 0
rfoot 7.91451 29.7426 -0.0364343
rtoes -4.63735 0 0
lowerback 3.46832 -3.27648 -4.93349
upperback 0.0894802 -4.54173 1.16705
thorax -1.36878 -2.23498 4.15116
lowerneck -8.35856 -9.42429 -0.549786
upperneck 14.8967 -13.4557 4.72431
head 6.26557 -6.17982 0.494879
lclavicle 6.20208e-14 0 0
lhumerus -22.16 -42.0206 92.9869
lradius 56.6471 -0 0
lwrist 20.89 0 0
lhand -10.6947 0.389224 -0.00862591
lfingers 7.12502 -0 0
lthumb 15.3151 29.8107 -0.00673719
rclavicle 6.20208e-14 0 0
rhumerus 21.9278 3.54128 -71.8447
rradius 118.628 -0 0
rwrist -58.9746 0 0
rhand -27.0478 -22.5022 0.0180434
rfingers 7.12502 -0 0
rthumb -0.466215 -52.479 0.017316
612
root 5.61278 16.7025 -3.77777 0.437494 50.8862 -7.83657
lfemur -17.7654 24.5099 -21.9285
ltibia 39.9644 -0 0
lfoot -32.3568 25.0892 0.00226095
ltoes 18.4008 -0 0
rfemur -52.4371 -17.9823 27.836
rtibia 61.2567 -0 0
rfoot 8.02913 29.2459 -0.0654275
rtoes -5.18669 0 0
lowerback 3.30298 -3.33054 -4.77153
upperback -0.0321531 -4.60121 1.23894
thorax -1.40123 -2.26243 4.12953
lowerneck -8.51722 -9.24485 -0.400434
upperneck 14.9974 -13.2073 4.50521
head 6.29279 -6.06395 0.417295
lclavicle 6.20208e-14 0 0
lhumerus -22.1093 -42.6591 93.5624
lradius 57.1462 -0 0
lwrist 20.7889 0 0
lhand -10.6784 0.294038 -0.0105457
lfingers 7.12502 -0 0
lthumb 15.331 29.7174 -0.00798477
rclavicle 6.20208e-14 0 0
rhumerus 21.3451 3.15616 -71.3938
rradius 117.539 -0 0
rwrist -59.1614 0 0
rhand -27.3025 -22.8197 0.0288615
rfingers 7.12502 -0 0
rthumb -0.71219 -52.7941 0.0276998
613
root 5.62041 16.7244 -3.78748 0.868677 49.2848 -7.57772
lfemur -17.5207 24.3384 -22.0057
ltibia 39.512 -0 0
lfoot -32.4949 25.2201 0.00192787
ltoes 19.4254 -0 0
rfemur -52.2041 -18.0151 27.3849
rtibia 61.8821 -0 0
rfoot 8.15841 28.5466 -0.0974661
rtoes -5.96996 0 0
lowerback 3.12071 -3.37769 -4.59267
upperback -0.157363 -4.65013 1.32729
thorax -1.4293 -2.28487 4.11429
lowerneck -8.67786 -9.06537 -0.252349
upperneck 15.1033 -12.9556 4.26574
head 6.32166 -5.94814 0.333801
lclavicle 6.20208e-14 0 0
lhumerus -22.0592 -43.2726 94.1582
lradius 57.6862 -0 0
lwrist 20.6996 0 0
lhand -10.7256 0.162783 -0.0112454
lfingers 7.12502 -0 0
lthumb 15.2857 29.5918 -0.0081821
rclavicle 6.20208e-14 0 0
rhumerus 20.7207 2.80896 -70.8847
rradius 116.417 -0 0
rwrist -59.2963 0 0
rhand -27.5955 -23.1591 0.0396342
rfingers 7.12502 -0 0
rthumb -0.995212 -53.1306 0.0380436
614
root 5.63201 16.7469 -3.79614 1.29026 47.7167 -7.33105
lfemur -17.2461 24.081 -22.0748
ltibia 39.0396 -0 0
lfoot -32.6435 25.2991 0.00129609
ltoes 20.4567 -0 0
rfemur -51.8983 -18.0145 26.8196
rtibia 62.5285 -0 0
rfoot 8.29522 27.6698 -0.129526
rtoes -6.93852 0 0
lowerback 2.92446 -3.41826 -4.40135
upperback -0.285236 -4.68944 1.42867
thorax -1.45347 -2.30276 4.10455
lowerneck -8.83893 -8.88725 -0.106817
upperneck 15.2091 -12.7029 4.01271
head 6.35074 -5.83331 0.246567
lclavicle 6.20208e-14 0 0
lhumerus -22.014 -43.8675 94.7714
lradius 58.2615 -0 0
lwrist 20.6224 0 0
lhand -10.824 0.00252284 -0.0111143
lfingers 7.12502 -0 0
lthumb 15.191 29.4401 -0.00769038
rclavicle 6.20208e-14 0 0
rhumerus 20.0491 2.50158 -70.3304
rradius 115.264 -0 0
rwrist -59.3733 0 0
rhand -27.9178 -23.5176 0.0495295
rfingers 7.12502 -0 0
rthumb -1.30641 -53.4861 0.0475503
615
root 5.64677 16.7695 -3.80355 1.70543 46.1817 -7.09448
lfemur -16.95 23.7532 -22.1386
ltibia 38.5536 -0 0
lfoot -32.8004 25.3273 0.000459643
ltoes 21.4838 -0 0
rfemur -51.5358 -17.9869 26.1645
rtibia 63.1843 -0 0
rfoot 8.43231 26.6404 -0.158826
rtoes -8.04376 0 0
lowerback 2.71717 -3.45264 -4.20202
upperback -0.41485 -4.72009 1.53963
thorax -1.47426 -2.31659 4.09942
lowerneck -8.99887 -8.71191 0.0348981
upperneck 15.3094 -12.4519 3.75282
head 6.37858 -5.72038 0.157755
lclavicle 6.20208e-14 0 0
lhumerus -21.9782 -44.4504 95.3992
lradius 58.8669 -0 0
lwrist 20.5576 0 0
lhand -10.9613 -0.179679 -0.0105405
lfingers 7.12502 -0 0
lthumb 15.0588 29.2687 -0.00686675
rclavicle 6.20208e-14 0 0
rhumerus 19.3253 2.23588 -69.7439
rradius 114.086 -0 0
rwrist -59.386 0 0
rhand -28.26 -23.8929 0.0578249
rfingers 7.12502 -0 0
rthumb -1.63689 -53.8581 0.0555271
616
root 5.66389 16.7918 -3.80952 2.11696 44.6797 -6.86634
lfemur -16.6403 23.3703 -22.2
ltibia 38.0603 -0 0
lfoot -32.9635 25.3061 -0.00050718
ltoes 22.4958 -0 0
rfemur -51.1325 -17.939 25.4439
rtibia 63.8378 -0 0
rfoot 8.56233 25.4834 -0.182945
rtoes -9.23705 0 0
lowerback 2.50183 -3.48124 -3.99913
upperback -0.545279 -4.74308 1.65673
thorax -1.49214 -2.32682 4.09804
lowerneck -9.15616 -8.54078 0.171551
upperneck 15.3992 -12.2051 3.49274
head 6.40375 -5.61031 0.0695207
lclavicle 6.20208e-14 0 0
lhumerus -21.9562 -45.0278 96.039
lradius 59.4969 -0 0
lwrist 20.5054 0 0
lhand -11.1251 -0.37676 -0.00985516
lfingers 7.12502 -0 0
lthumb 14.901 29.0837 -0.00601694
rclavicle 6.20208e-14 0 0
rhumerus 18.5441 2.01355 -69.1382
rradius 112.887 -0 0
rwrist -59.3285 0 0
rhand -28.6129 -24.2822 0.0639277
rfingers 7.12502 -0 0
rthumb -1.97778 -54.2441 0.0614051
617
root 5.68258 16.8135 -3.81386 2.52736 43.2108 -6.64527
lfemur -16.3251 22.9478 -22.2612
ltibia 37.5661 -0 0
lfoot -33.1304 25.2365 -0.00153942
ltoes 23.4817 -0 0
rfemur -50.7045 -17.8779 24.682
rtibia 64.4775 -0 0
rfoot 8.67778 24.2238 -0.199904
rtoes -10.4698 0 0
lowerback 2.28138 -3.50453 -3.79711
upperback -0.675594 -4.75941 1.77652
thorax -1.50761 -2.33393 4.09951
lowerneck -9.3093 -8.37531 0.301914
upperneck 15.4733 -11.9652 3.23904
head 6.42484 -5.50404 -0.0159898
lclavicle 6.20208e-14 0 0
lhumerus -21.9528 -45.606 96.6882
lradius 60.1462 -0 0
lwrist 20.4662 0 0
lhand -11.3032 -0.581654 -0.00929338
lfingers 7.12502 -0 0
lthumb 14.7294 28.8914 -0.00536082
rclavicle 6.20208e-14 0 0
rhumerus 17.7009 1.83613 -68.5267
rradius 111.67 -0 0
rwrist -59.1945 0 0
rhand -28.9675 -24.6831 0.0673912
rfingers 7.12502 -0 0
rthumb -2.32017 -54.6416 0.0647541
618
root 5.70204 16.834 -3.81637 2.93885 41.7748 -6.43018
lfemur -16.0122 22.501 -22.3245
ltibia 37.0771 -0 0
lfoot -33.2991 25.1199 -0.0025715
ltoes 24.4307 -0 0
rfemur -50.2672 -17.8115 23.9031
rtibia 65.0918 -0 0
rfoot 8.77104 22.8866 -0.208224
rtoes -11.6933 0 0
lowerback 2.0588 -3.52303 -3.60042
upperback -0.804868 -4.77009 1.89556
thorax -1.52116 -2.33838 4.10295
lowerneck -9.45677 -8.21695 0.42478
upperneck 15.5267 -11.735 2.99824
head 6.44044 -5.40251 -0.096635
lclavicle 6.20208e-14 0 0
lhumerus -21.9732 -46.1915 97.3448
lradius 60.8093 -0 0
lwrist 20.4402 0 0
lhand -11.4833 -0.787298 -0.00896874
lfingers 7.12502 -0 0
lthumb 14.5559 28.6979 -0.00501094
rclavicle 6.20208e-14 0 0
rhumerus 16.7909 1.70489 -67.9227
rradius 110.439 -0 0
rwrist -58.9779 0 0
rhand -29.3143 -25.0928 0.0679257
rfingers 7.12502 -0 0
rthumb -2.65517 -55.0481 0.065294
619
root 5.72147 16.853 -3.81687 3.3535 40.3717 -6.2202
lfemur -15.7094 22.0454 -22.3917
ltibia 36.5998 -0 0
lfoot -33.4672 24.9575 -0.00352776
ltoes 25.3317 -0 0
rfemur -49.8359 -17.7484 23.1307
rtibia 65.669 -0 0
rfoot 8.83439 21.4968 -0.206948
rtoes -12.8591 0 0
lowerback 1.83705 -3.53733 -3.4135
upperback -0.932177 -4.77618 2.01043
thorax -1.53328 -2.34066 4.10748
lowerneck -9.59709 -8.06717 0.538952
upperneck 15.5544 -11.5172 2.7768
head 6.44915 -5.3067 -0.170279
lclavicle 6.20208e-14 0 0
lhumerus -22.0226 -46.7904 98.0069
lradius 61.4809 -0 0
lwrist 20.4279 0 0
lhand -11.6529 -0.986626 -0.00886399
lfingers 7.12502 -0 0
lthumb 14.3924 28.5095 -0.00496377
rclavicle 6.20208e-14 0 0
rhumerus 15.8095 1.62078 -67.3398
rradius 109.2 -0 0
rwrist -58.6726 0 0
rhand -29.6443 -25.5089 0.0654072
rfingers 7.12502 -0 0
rthumb -2.97386 -55.4611 0.062902
620
root 5.74008 16.87 -3.81515 3.77321 39.0013 -6.01462
lfemur -15.4243 21.5963 -22.4643
ltibia 36.1405 -0 0
lfoot -33.6327 24.7505 -0.00431347
ltoes 26.1739 -0 0
rfemur -49.4256 -17.698 22.3885
rtibia 66.1976 -0 0
rfoot 8.86001 20.0794 -0.195629
rtoes -13.9184 0 0
lowerback 1.61908 -3.54805 -3.24081
upperback -1.0566 -4.77872 2.11769
thorax -1.54446 -2.34125 4.11224
lowerneck -9.72879 -7.92746 0.643252
upperneck 15.5518 -11.3146 2.58115
head 6.44959 -5.21754 -0.234789
lclavicle 6.20208e-14 0 0
lhumerus -22.1066 -47.4089 98.6727
lradius 62.1555 -0 0
lwrist 20.4294 0 0
lhand -11.7998 -1.17257 -0.00883658
lfingers 7.12502 -0 0
lthumb 14.2508 28.3325 -0.00510405
rclavicle 6.20208e-14 0 0
rhumerus 14.7522 1.58435 -66.7915
rradius 107.956 -0 0
rwrist -58.2724 0 0
rhand -29.9482 -25.9288 0.0598798
rfingers 7.12502 -0 0
rthumb -3.26733 -55.878 0.0576164
621
root 5.75706 16.8846 -3.81104 4.19975 37.6634 -5.81288
lfemur -15.1645 21.1691 -22.5436
ltibia 35.7054 -0 0
lfoot -33.7932 24.5 -0.00480629
ltoes 26.9463 -0 0
rfemur -49.0507 -17.6702 21.6998
rtibia 66.6659 -0 0
rfoot 8.84004 18.6594 -0.174286
rtoes -14.8227 0 0
lowerback 1.40787 -3.55589 -3.08678
upperback -1.17723 -4.77879 2.21393
thorax -1.5552 -2.34061 4.11632
lowerneck -9.85041 -7.79929 0.736507
upperneck 15.5138 -11.1301 2.4177
head 6.44037 -5.13601 -0.288036
lclavicle 6.20208e-14 0 0
lhumerus -22.2313 -48.053 99.3412
lradius 62.8279 -0 0
lwrist 20.4451 0 0
lhand -11.9117 -1.33807 -0.00863951
lfingers 7.12502 -0 0
lthumb 14.1429 28.1729 -0.00522184
rclavicle 6.20208e-14 0 0
rhumerus 13.6142 1.59561 -66.2918
rradius 106.712 -0 0
rwrist -57.7713 0 0
rhand -30.2167 -26.3497 0.0515554
rfingers 7.12502 -0 0
rthumb -3.52668 -56.2964 0.0496359
622
root 5.77163 16.8963 -3.80433 4.63479 36.3581 -5.61455
lfemur -14.9375 20.7793 -22.6306
ltibia 35.301 -0 0
lfoot -33.9466 24.2074 -0.00484828
ltoes 27.6381 -0 0
rfemur -48.7256 -17.6755 21.0876
rtibia 67.0623 -0 0
rfoot 8.76664 17.2617 -0.143327
rtoes -15.5233 0 0
lowerback 1.20634 -3.56156 -2.95583
upperback -1.29315 -4.77749 2.29573
thorax -1.56598 -2.33923 4.11887
lowerneck -9.96047 -7.68415 0.817556
upperneck 15.4358 -10.9664 2.29286
head 6.42012 -5.06306 -0.327891
lclavicle 6.20208e-14 0 0
lhumerus -22.4029 -48.7289 100.012
lradius 63.4926 -0 0
lwrist 20.4753 0 0
lhand -11.9762 -1.47606 -0.0079573
lfingers 7.12502 -0 0
lthumb 14.0807 28.0371 -0.00504261
rclavicle 6.20208e-14 0 0
rhumerus 12.391 1.65395 -65.8547
rradius 105.471 -0 0
rwrist -57.163 0 0
rhand -30.4407 -26.7692 0.0408088
rfingers 7.12502 -0 0
rthumb -3.743 -56.7138 0.0393153
